HIERARCHY
ROOT Hips
{
	OFFSET 0.000000 0.000000 0.000000
	CHANNELS 6 Xposition Yposition Zposition Xrotation Yrotation Zrotation
	JOINT Spine
	{
		OFFSET 0.000000 0.053497 0.080245
		CHANNELS 3 Xrotation Yrotation Zrotation
		JOINT Spine1
		{
			OFFSET 0.000000 0.018579 0.105368
			CHANNELS 3 Xrotation Yrotation Zrotation
			JOINT Spine2
			{
				OFFSET 0.000000 0.009325 0.106586
				CHANNELS 3 Xrotation Yrotation Zrotation
				JOINT Spine3
				{
					OFFSET 0.000000 0.000000 0.106993
					CHANNELS 3 Xrotation Yrotation Zrotation
					JOINT Neck
					{
						OFFSET 0.000000 -0.040122 0.280858
						CHANNELS 3 Xrotation Yrotation Zrotation
						JOINT Head
						{
							OFFSET 0.000000 -0.025546 0.144881
							CHANNELS 3 Xrotation Yrotation Zrotation
							End Site
							{
								OFFSET 0.000000 0.000000 0.000000
							}
						}
					}
					JOINT RightShoulder
					{
						OFFSET -0.032541 -0.054234 0.175720
						CHANNELS 3 Xrotation Yrotation Zrotation
						JOINT RightArm
						{
							OFFSET -0.161619 0.000000 0.000000
							CHANNELS 3 Xrotation Yrotation Zrotation
							JOINT RightForeArm
							{
								OFFSET -0.257104 0.000000 0.000000
								CHANNELS 3 Xrotation Yrotation Zrotation
								JOINT RightHand
								{
									OFFSET -0.273485 0.000000 0.000000
									CHANNELS 3 Xrotation Yrotation Zrotation
									JOINT RightHandEnd
									{
										OFFSET -0.070844 0.000000 0.000000
										CHANNELS 3 Xrotation Yrotation Zrotation
										End Site
										{
											OFFSET 0.000000 0.000000 0.000000
										}
									}
									JOINT RightHandThumb1
									{
										OFFSET -0.028338 -0.047230 -0.018892
										CHANNELS 3 Xrotation Yrotation Zrotation
										End Site
										{
											OFFSET 0.000000 0.000000 0.000000
										}
									}
								}
							}
						}
					}
					JOINT LeftShoulder
					{
						OFFSET 0.032541 -0.054234 0.175720
						CHANNELS 3 Xrotation Yrotation Zrotation
						JOINT LeftArm
						{
							OFFSET 0.161619 0.000000 0.000000
							CHANNELS 3 Xrotation Yrotation Zrotation
							JOINT LeftForeArm
							{
								OFFSET 0.257104 0.000000 0.000000
								CHANNELS 3 Xrotation Yrotation Zrotation
								JOINT LeftHand
								{
									OFFSET 0.273485 0.000000 0.000000
									CHANNELS 3 Xrotation Yrotation Zrotation
									JOINT LeftHandEnd
									{
										OFFSET 0.070844 0.000000 0.000000
										CHANNELS 3 Xrotation Yrotation Zrotation
										End Site
										{
											OFFSET 0.000000 0.000000 0.000000
										}
									}
									JOINT LeftHandThumb1
									{
										OFFSET 0.028338 -0.047230 -0.018892
										CHANNELS 3 Xrotation Yrotation Zrotation
										End Site
										{
											OFFSET 0.000000 0.000000 0.000000
										}
									}
								}
							}
						}
					}
				}
			}
		}
	}
	JOINT RightUpLeg
	{
		OFFSET -0.096537 0.000000 -0.028202
		CHANNELS 3 Xrotation Yrotation Zrotation
		JOINT RightLeg
		{
			OFFSET 0.000000 0.000000 -0.431842
			CHANNELS 3 Xrotation Yrotation Zrotation
			JOINT RightFoot
			{
				OFFSET 0.000000 0.000000 -0.456398
				CHANNELS 3 Xrotation Yrotation Zrotation
				JOINT RightToeBase
				{
					OFFSET 0.000000 -0.128905 -0.046918
					CHANNELS 3 Xrotation Yrotation Zrotation
					End Site
					{
						OFFSET 0.000000 0.000000 0.000000
					}
				}
			}
		}
	}
	JOINT LeftUpLeg
	{
		OFFSET 0.096537 0.000000 -0.028202
		CHANNELS 3 Xrotation Yrotation Zrotation
		JOINT LeftLeg
		{
			OFFSET 0.000000 0.000000 -0.431842
			CHANNELS 3 Xrotation Yrotation Zrotation
			JOINT LeftFoot
			{
				OFFSET 0.000000 0.000000 -0.456398
				CHANNELS 3 Xrotation Yrotation Zrotation
				JOINT LeftToeBase
				{
					OFFSET 0.000000 -0.128905 -0.046918
					CHANNELS 3 Xrotation Yrotation Zrotation
					End Site
					{
						OFFSET 0.000000 0.000000 0.000000
					}
				}
			}
		}
	}
}
MOTION
Frames: 4
Frame Time: 0.033333
0.313032 0.294307 0.986358 43.917300 -0.579000 -53.811400 4.860600 5.883500 1.979000 3.978700 4.065600 0.816600 7.239300 -3.981700 16.261600 0.753300 -3.281000 5.806600 -18.520400 0.936800 13.128300 3.150100 -0.111900 1.564300 9.439100 11.213300 7.644400 41.209300 -54.893700 27.915300 0.000000 0.000100 102.123600 -21.829800 0.355000 -13.075500 0.000000 0.000000 0.000000 0.000000 0.000000 0.000000 6.986600 15.357100 -24.282400 54.954300 28.968600 -49.835900 -0.000100 -0.000100 -84.403400 -48.079100 5.422900 0.227600 0.000000 0.000000 0.000000 0.000000 0.000000 0.000000 15.382600 21.488500 -23.735400 17.847400 0.000000 0.000000 -6.575400 -1.006100 3.903000 -19.801900 0.000000 0.000000 -53.845500 -36.196500 11.076300 24.915400 0.000000 0.000000 -20.847600 28.502900 24.960700 9.475500 0.000000 0.000000 
0.315029 0.294325 0.986112 43.705500 -1.012700 -53.819300 4.934000 6.160700 1.974200 4.001500 4.250400 0.825200 7.520700 -3.979500 16.292300 0.804700 -3.296000 5.827000 -18.122200 1.564300 13.863800 2.851300 0.043100 1.639600 9.984300 11.757900 6.410900 43.418100 -55.044800 28.741500 -0.000100 0.000100 103.198900 -20.264900 0.868100 -12.123000 0.000000 0.000000 0.000000 0.000000 0.000000 0.000000 7.133500 15.511200 -24.583300 55.351100 28.139800 -49.844600 -0.000100 -0.000100 -85.101500 -45.756300 5.949400 0.615000 0.000000 0.000000 0.000000 0.000000 0.000000 0.000000 15.062800 21.587400 -23.251700 18.065800 0.000000 0.000000 -6.676700 -1.062800 3.794300 -19.680000 0.000000 0.000000 -53.710100 -35.840500 11.751100 24.723400 0.000000 0.000000 -20.638800 28.495900 24.521100 9.623300 0.000000 0.000000 
0.317421 0.294244 0.985507 43.494000 -1.306000 -53.861600 5.086500 6.372000 1.967900 4.069200 4.325000 0.831600 7.757200 -4.109100 16.537200 0.840000 -3.356500 5.924300 -17.716300 2.240600 14.732400 2.523700 0.092600 1.699000 10.579000 12.538700 5.276600 45.052200 -55.524200 29.423500 -0.000100 0.000100 103.978700 -19.211900 1.299600 -11.253600 0.000000 0.000000 0.000000 0.000000 0.000000 0.000000 7.188700 15.838200 -24.907500 55.488500 27.372300 -49.886000 -0.000100 -0.000100 -85.685600 -43.648900 6.458300 1.216000 0.000000 0.000000 0.000000 0.000000 0.000000 0.000000 14.569900 21.584600 -23.134100 18.196800 0.000000 0.000000 -6.692800 -1.275500 4.075200 -19.534500 0.000000 0.000000 -53.658500 -35.511800 12.061600 24.776600 0.000000 0.000000 -21.006400 28.499200 24.284100 10.090200 0.000000 0.000000 
0.319885 0.294170 0.984976 43.278800 -1.386800 -54.092400 5.348500 6.555600 1.946700 4.195700 4.316900 0.837000 7.889500 -4.237800 16.926100 0.849800 -3.469100 6.081800 -17.332700 2.653600 15.502100 2.200900 0.128700 1.905300 11.165800 13.384700 4.508000 46.120900 -56.198600 29.868200 -0.000100 0.000100 104.579500 -18.873700 1.628800 -10.598300 0.000000 0.000000 0.000000 0.000000 0.000000 0.000000 7.077100 16.085200 -25.132600 55.600000 26.693900 -50.101100 -0.000100 -0.000100 -86.110700 -41.573100 6.818800 1.813200 0.000000 0.000000 0.000000 0.000000 0.000000 0.000000 13.942500 21.459400 -23.314600 18.279000 0.000000 0.000000 -6.665200 -1.307100 4.351900 -19.430800 0.000000 0.000000 -53.482500 -35.321600 12.186300 24.897900 0.000000 0.000000 -21.556600 28.144900 23.896900 11.061700 0.000000 0.000000 
